<svg aria-hidden="true" style="position:absolute;width:0;height:0;overflow:hidden" xmlns="http://www.w3.org/2000/svg">
  <defs>
    <symbol id="icon-planet" viewBox="0 0 33 32">
      <path fill="#89c8fd" style="fill:var(--color1, #89c8fd)" d="M24.242 18.41c0-5.816-4.702-10.531-10.503-10.531S3.236 12.594 3.236 18.41c0 5.816 4.702 10.531 10.503 10.531s10.503-4.715 10.503-10.531z"/>
      <path fill="#60b6ff" style="fill:var(--color2, #60b6ff)" d="M13.739 7.879c-.539 0-1.069.041-1.586.119 5.048.767 8.917 5.136 8.917 10.412s-3.869 9.645-8.917 10.412c.517.079 1.047.119 1.586.119 5.801 0 10.503-4.715 10.503-10.531S19.54 7.879 13.739 7.879z"/>
      <path fill="#baeb6c" style="fill:var(--color3, #baeb6c)" d="M12.374 11.971c-1.618 1.014-2.832 2.636-1.921 4.461s2.933 1.115 4.803.862c1.871-.253.455 5.526 1.567 6.945s4.247-1.419 3.944-3.245c-.449-2.702-.607-3.65 3.034-5.576l.01-.004c-1.227-4.155-4.941-7.238-9.414-7.515l-.001.016s-.405 3.042-2.022 4.056zM20.32 10.202l.002.002-.002-.002zM21.604 11.431v.001-.001zM6.762 23.175c-.486-.741.86-2.484 1.163-3.802S6.408 18.156 5.852 17.7c-.556-.456-1.315-2.433-1.871-2.89l-.089-.07a10.528 10.528 0 0 0-.656 3.669c0 3.481 1.685 6.567 4.281 8.484l.003-.221s.404-1.724-.758-3.498z"/>
      <path fill="#baeb6c" style="fill:var(--color3, #baeb6c)" d="M20.767 20.995a.532.532 0 0 0-.007-.039 10.522 10.522 0 0 1-.872 2.312c.597-.705.997-1.565.879-2.272z"/>
      <path fill="#96d629" style="fill:var(--color4, #96d629)" d="M14.397 7.9v.016s-.034.254-.121.639a10.536 10.536 0 0 1 6.751 8.888c.464-.635 1.313-1.25 2.774-2.024l.01-.004C22.584 11.26 18.87 8.177 14.397 7.9z"/>
      <path fill="#09a66d" style="fill:var(--color5, #09a66d)" d="M13.725 32c-.744 0-1.493-.061-2.242-.185-3.579-.591-6.714-2.541-8.827-5.489S-.295 19.782.296 16.203a.476.476 0 0 1 .939.155c-.55 3.328.23 6.672 2.195 9.414s4.88 4.555 8.209 5.105c6.872 1.135 13.384-3.532 14.52-10.403.55-3.328-.23-6.672-2.195-9.414s-4.88-4.555-8.209-5.105a.476.476 0 0 1 .155-.939c3.58.591 6.715 2.541 8.827 5.489s2.951 6.544 2.36 10.123a13.493 13.493 0 0 1-5.49 8.827A13.483 13.483 0 0 1 13.725 32z"/>
      <path fill="#49cb5c" style="fill:var(--color6, #49cb5c)" d="M10.836 11.493c-5.079-.862-8.23-7.257-8.23-7.257S7.69-.762 12.769.1c5.079.862 8.23 7.257 8.23 7.257s-5.084 4.998-10.163 4.136z"/>
      <path fill="#07b128" style="fill:var(--color7, #07b128)" d="M12.77.1c-.97-.165-1.94-.115-2.874.072 4.867 1.093 7.869 7.184 7.869 7.184s-3.328 3.271-7.289 4.064c.119.027.239.052.361.072C15.916 12.354 21 7.356 21 7.356S17.849.961 12.77.099z"/>
      <path fill="#09a66d" style="fill:var(--color5, #09a66d)" d="m20.713 6.825-4.967-.838-4.64-5.974c-.37.022-.737.069-1.099.137l4.352 5.603-3.745-.632L7.418.986c-.3.135-.591.279-.872.428l2.685 3.474-6.193-1.045c-.278.243-.431.393-.431.393s.102.207.298.55l6.159 1.039-3.416 2.641c.22.227.451.45.692.668l4.001-3.094 3.965.669-5.393 4.172c.335.156.681.292 1.037.4l5.632-4.357 4.97.838c.288-.251.447-.407.447-.407s-.098-.199-.287-.531z"/>
      <path fill="#49cb5c" style="fill:var(--color6, #49cb5c)" d="M24.454 5.285c1.363-3.224 6.084-4.31 6.084-4.31s2.512 4.142 1.149 7.366c-1.362 3.224-6.084 4.31-6.084 4.31s-2.512-4.142-1.149-7.366z"/>
      <path fill="#07b128" style="fill:var(--color7, #07b128)" d="M30.538.976s-1.073.247-2.345.855c.652 1.381 1.686 4.185.703 6.511-.713 1.687-2.344 2.788-3.739 3.455.252.533.447.855.447.855s4.721-1.085 6.084-4.31c1.362-3.224-1.15-7.366-1.15-7.366z"/>
      <path fill="#09a66d" style="fill:var(--color5, #09a66d)" d="m32.073 5.683-3.63 1.523 2.384-5.699c-.171-.337-.289-.531-.289-.531s-.225.052-.59.166l-2.463 5.889-1.528-3.759a6.454 6.454 0 0 0-.724.745l1.731 4.259-1.626 3.887c.159.31.266.488.266.488s.244-.056.637-.181l1.679-4.014 4.152-1.742a6.85 6.85 0 0 0 .002-1.033z"/>
    </symbol>
  </defs>
</svg>
